<?xml version="1.0" encoding="UTF-8"?>
<svg id="Laag_1" data-name="Laag 1" xmlns="http://www.w3.org/2000/svg" baseProfile="tiny" version="1.2" viewBox="0 0 335 352.1">
  <path d="M248.7,290.9c-3.2-3.4-6.2-6.5-9.2-9.8-3.7,2.2-7.2,4.4-10.9,6.3-17.9,9.3-36.9,15.2-57,17.1-31.4,3-61.2-2.5-89-17.5-32.1-17.3-54.6-43.2-67.8-77.2-7.8-20.2-10.4-41.2-9.1-62.8,1.7-27.1,10-51.9,25.2-74.5,19.1-28.4,44.5-48.7,77.1-59.6,20.9-7,42.3-9.7,64.3-7.1,24.9,2.9,48.2,10.9,68.9,25.2,35.5,24.4,57.5,58,64.7,100.5,7,41.2-1.9,79.1-26.4,113.1-3.4,4.7-7.4,9-11.3,13.7,1.6,1.6,3.3,3.5,5.1,5.2.3.3,1.4.2,1.9,0,5.4-2.4,8.7-2.1,12.9,2,11.6,11.4,23.3,22.7,34.6,34.4,10,10.4,9.3,29.3-1.1,39.4-11,10.6-28.9,10.7-39.6.2-10.5-10.4-21-20.8-31.5-31.2-.7-.7-1.4-1.4-2.1-2.2-4.8-5.3-4.6-10.6.4-15.2ZM242.3,246.5c4-4.7,8.5-9.3,12.3-14.4,18-24,26.5-51,25-81-1.3-27-10.4-51.2-28-71.7-29.1-33.8-65.9-49.4-110.6-44.4-24,2.7-45.6,11.8-63.7,28-32.2,28.7-47,64.6-42.9,107.7,3.1,32.5,17.5,59.6,42.5,80.4,28.4,23.6,61.6,32,98,26.8,18.7-2.7,36.1-9.1,51.7-19.9,1.3-.9,2.1-.7,3.1.4,3,3.2,6.2,6.2,9.2,9.4,5.2,5.5,10.4,11,15.7,16.6,4.5-4.8,8.2-8.8,12.1-12.9-8.3-8.4-16.4-16.6-24.5-24.9Z" fill="#000" stroke-width="0"/>
  <path d="M246.4,216.5c-.1-2-.2-3.4-.2-4.8,0-21.7-.2-43.3,0-65,0-6.4-4.9-13-12.5-13-6.9,0-12,5.5-12,12.9,0,31,0,62.1,0,93.1,0,2.6-.7,4.2-2.9,5.4-4.3,2.4-8.5,4.9-12.7,7.3-.3.2-.7.2-1.4.5,0-1.2,0-2.2,0-3.1,0-28.2,0-56.4,0-84.7,0-6-3.6-10.7-9.2-12.4-7.6-2.2-14.8,3.2-15,11.4-.1,5.2-.1,10.5-.1,15.7,0,26.3,0,52.6,0,78.9,0,1,0,2,0,3.4-5.4.7-10.7,1.3-16.4,2,0-1.3,0-2.2,0-3.2,0-49.1,0-98.3,0-147.4,0-5.3-3.1-9.8-8.2-11.6-5-1.8-10.5-.3-13.7,3.8-2.1,2.8-2.6,6-2.6,9.4,0,46.3,0,92.6,0,138.9,0,2.8,0,5.6,0,9-5.4-1.3-10.4-2.4-15.3-3.8-.6-.2-1.1-1.7-1.1-2.6,0-18.1,0-36.2,0-54.3,0-10.3,0-20.6,0-30.9,0-7.2-5-12.4-12-12.5-6.6,0-11.8,5.4-11.8,12.5,0,24.4,0,48.8,0,73.2,0,1,0,1.9,0,3.6-3.2-2.4-6.1-4.3-8.8-6.4-7.8-5.9-7.7-6-7.8-15.7,0-10.9-.1-21.7-.3-32.6-.1-5.8-5.2-10.4-11-10.4-5.9,0-10.6,4.6-10.9,10.4,0,1.5,0,3,0,4.5,0,1.9,0,3.8,0,5.9-6.1-8.5-13.7-35.9-10.2-61.7,2.9-21.7,11.9-40.4,26-56.8,38.9-45.3,105.5-47.5,148.4-11.8,47.1,39.3,48.7,101.8,21.9,142.7ZM125,97.4c7,0,13.4-6.3,13.5-13.6,0-7.6-6.2-13.9-13.9-14-7.4,0-13.6,6-13.6,13.6,0,7.9,6,13.9,14.1,14Z" fill="#000" stroke-width="0"/>
</svg>